<?xml version="1.0" encoding="UTF-8" standalone="no"?><!DOCTYPE svg PUBLIC "-//W3C//DTD SVG 1.1//EN" "http://www.w3.org/Graphics/SVG/1.1/DTD/svg11.dtd"><svg width="100%" height="100%" viewBox="0 0 24 24" version="1.1" xmlns="http://www.w3.org/2000/svg" xmlns:xlink="http://www.w3.org/1999/xlink" xml:space="preserve" xmlns:serif="http://www.serif.com/" style="fill-rule:evenodd;clip-rule:evenodd;stroke-linejoin:round;stroke-miterlimit:2;"><path d="M22.368,4.183c-0,1.418 -1.151,2.57 -2.569,2.57l-8.704,-0c-1.418,-0 -2.57,-1.152 -2.57,-2.57c0,-1.418 1.152,-2.569 2.57,-2.569l8.704,-0c1.418,-0 2.569,1.151 2.569,2.569Z" style="fill:#f4e8db;"/><path d="M22.398,11.397c0,1.505 -1.222,2.727 -2.726,2.727l-12.532,-0c-1.505,-0 -2.727,-1.222 -2.727,-2.727c0,-1.505 1.222,-2.727 2.727,-2.727l12.532,0c1.504,0 2.726,1.222 2.726,2.727Z" style="fill:#f4e8db;"/><path d="M22.457,18.738c-0,1.534 -1.246,2.779 -2.779,2.779l-15.311,-0c-1.534,-0 -2.779,-1.245 -2.779,-2.779c-0,-1.534 1.245,-2.779 2.779,-2.779l15.311,-0c1.533,-0 2.779,1.245 2.779,2.779Z" style="fill:#f4e8db;"/></svg>