<?xml version="1.0" standalone="no"?>
<!DOCTYPE svg PUBLIC "-//W3C//DTD SVG 20010904//EN"
 "http://www.w3.org/TR/2001/REC-SVG-20010904/DTD/svg10.dtd">
<svg version="1.0" xmlns="http://www.w3.org/2000/svg"
 width="2126.000000pt" height="2126.000000pt" viewBox="0 0 2126.000000 2126.000000"
 preserveAspectRatio="xMidYMid meet">
<metadata>
Created by potrace 1.14, written by Peter Selinger 2001-2017
</metadata>
<g transform="translate(0.000000,2126.000000) scale(0.100000,-0.100000)"
fill="#000000" stroke="none">
<path d="M8669 18526 c-2 -2 -64 -7 -137 -11 -73 -3 -142 -8 -155 -10 -12 -2
-58 -6 -102 -10 -44 -3 -87 -8 -95 -10 -8 -2 -42 -7 -75 -10 -33 -4 -69 -8
-80 -10 -11 -2 -41 -6 -66 -9 -44 -6 -129 -21 -294 -52 -24 -4 -200 -46 -295
-69 -136 -34 -411 -122 -555 -178 -385 -151 -682 -311 -1050 -565 -57 -40 -64
-42 -150 -47 -99 -5 -150 -10 -240 -26 -33 -5 -69 -12 -80 -14 -50 -8 -192
-48 -272 -76 -129 -45 -153 -55 -321 -141 -629 -320 -1161 -867 -1496 -1538
-179 -358 -374 -954 -420 -1285 -3 -22 -8 -51 -11 -65 -2 -13 -7 -54 -11 -90
-3 -36 -8 -74 -11 -85 -6 -27 -11 -448 -6 -505 l5 -45 67 -21 68 -21 39 76
c21 41 49 90 61 109 13 18 23 35 23 38 0 8 101 149 137 193 36 44 209 218 248
251 17 14 54 45 83 69 53 44 72 49 53 14 -13 -23 -35 -74 -61 -143 -12 -30
-28 -68 -35 -85 -53 -120 -210 -564 -255 -725 -12 -41 -28 -97 -36 -125 -14
-46 -120 -453 -130 -500 -3 -11 -9 -40 -14 -65 -5 -25 -18 -88 -30 -140 -11
-52 -23 -110 -26 -129 -3 -18 -7 -41 -9 -50 -2 -9 -10 -50 -19 -91 -13 -64
-35 -190 -53 -305 -2 -16 -10 -68 -18 -115 -8 -47 -16 -103 -19 -125 -4 -22
-8 -51 -11 -65 -2 -14 -7 -47 -10 -75 -3 -27 -8 -61 -10 -75 -2 -14 -9 -68
-15 -120 -6 -52 -13 -108 -15 -125 -4 -28 -8 -68 -20 -187 -3 -29 -8 -71 -10
-93 -2 -22 -7 -69 -10 -105 -4 -36 -8 -81 -10 -100 -2 -19 -6 -71 -9 -115 -4
-44 -9 -107 -11 -140 -3 -33 -8 -94 -10 -135 -2 -41 -7 -120 -10 -175 -24
-415 -29 -625 -29 -1170 -1 -533 5 -742 29 -1075 2 -36 7 -105 10 -155 4 -49
8 -101 10 -115 7 -50 18 -186 19 -225 0 -22 -26 -126 -57 -231 -31 -105 -68
-240 -82 -300 -30 -126 -92 -408 -100 -456 -32 -187 -46 -265 -50 -278 -2 -8
-7 -37 -10 -65 -3 -27 -7 -61 -10 -75 -3 -14 -7 -43 -10 -65 -2 -22 -9 -71
-15 -110 -5 -38 -12 -97 -14 -130 -3 -33 -8 -82 -10 -110 -16 -150 -21 -359
-11 -502 5 -74 8 -97 20 -175 3 -18 7 -49 9 -68 9 -70 17 -117 38 -215 11 -55
21 -107 23 -115 21 -102 77 -280 127 -397 38 -93 125 -264 137 -273 4 -3 18
-23 31 -45 13 -22 27 -42 30 -45 3 -3 21 -25 40 -50 276 -358 675 -595 1125
-666 73 -12 89 -14 180 -21 210 -16 429 -5 649 33 39 7 169 41 242 65 l61 20
109 -51 c60 -28 123 -58 139 -65 172 -80 650 -227 880 -271 22 -4 45 -8 50
-10 13 -3 122 -22 160 -28 160 -26 229 -36 280 -41 60 -6 118 -13 165 -20 14
-2 63 -7 110 -10 47 -3 105 -8 130 -10 179 -15 402 -20 845 -20 458 1 885 10
925 20 8 2 53 6 100 10 47 3 114 10 150 15 36 5 92 12 125 16 33 3 62 8 65 9
3 2 30 6 60 10 30 3 73 10 95 15 22 5 63 12 90 16 28 3 53 8 56 10 3 2 21 6
40 9 180 30 790 198 999 275 47 17 92 33 100 35 34 7 413 151 515 195 306 132
413 181 680 310 132 64 507 261 605 317 19 12 93 54 163 94 71 41 148 85 170
98 23 13 68 41 100 63 32 21 60 38 62 38 26 0 909 594 1047 704 29 23 60 47
98 75 129 97 232 177 383 298 l179 143 64 -50 c155 -122 304 -199 449 -233
335 -78 668 -66 954 35 169 60 331 145 474 252 65 47 300 241 348 286 9 8 34
32 57 52 99 92 261 297 401 506 60 90 171 294 186 342 4 14 16 43 25 65 27 62
178 518 183 556 2 8 6 20 10 27 5 6 6 12 3 12 -3 0 -1 12 4 26 9 24 40 158 55
239 12 63 34 233 40 300 3 39 8 84 10 100 13 100 33 712 24 719 -2 1 -28 9
-57 18 -39 12 -54 13 -57 5 -3 -7 -14 -59 -26 -117 -57 -281 -152 -473 -324
-658 -161 -173 -307 -246 -490 -245 -83 0 -109 3 -124 12 -13 9 -7 20 52 96 4
5 43 60 87 120 43 61 83 115 87 120 61 72 430 656 535 845 14 25 35 63 48 85
46 81 229 453 280 570 171 395 311 813 369 1105 6 30 14 66 17 80 12 56 43
234 49 285 2 17 6 44 9 60 2 17 7 55 11 85 4 30 8 66 10 80 4 30 14 111 19
165 3 22 8 81 11 130 4 50 8 101 10 114 22 132 22 786 0 1006 -2 22 -7 74 -10
115 -4 41 -9 83 -10 93 -2 10 -6 48 -10 84 -3 37 -8 69 -10 72 -2 3 -6 29 -9
56 -3 28 -8 59 -10 70 -2 11 -11 61 -21 110 -9 50 -30 146 -46 215 -37 152
-33 137 -47 185 -6 22 -12 43 -12 47 -1 4 -23 72 -49 150 -57 169 -109 301
-163 418 -22 47 -47 101 -56 120 -35 75 -138 260 -203 363 -38 60 -69 111 -69
114 0 6 400 -6 409 -12 3 -2 42 -6 86 -10 44 -4 89 -9 100 -11 10 -2 37 -6 60
-9 79 -12 101 -16 215 -40 102 -21 226 -45 238 -45 8 0 -9 179 -24 256 -8 43
-16 89 -19 103 -45 244 -174 597 -316 861 -93 174 -153 265 -289 439 -288 367
-490 531 -898 727 -74 35 -139 64 -146 64 -7 0 -16 4 -22 9 -23 23 -275 102
-389 122 -169 29 -523 32 -675 5 -14 -3 -52 -7 -85 -10 -271 -25 -602 -139
-944 -325 -89 -49 -97 -51 -130 -40 -20 6 -40 15 -46 18 -5 4 -37 17 -70 30
-33 13 -73 29 -90 36 -16 7 -68 28 -115 45 -47 18 -98 38 -115 45 -38 16 -343
130 -495 185 -63 23 -133 48 -155 57 -43 16 -384 139 -720 260 -210 76 -693
239 -750 253 -16 5 -91 27 -165 50 -74 23 -144 43 -155 46 -11 2 -31 8 -45 14
-14 5 -92 27 -175 50 -82 22 -163 44 -180 49 -16 5 -88 24 -160 41 -71 17
-146 35 -165 41 -36 10 -188 44 -230 53 -14 2 -56 11 -95 20 -38 9 -81 17 -95
20 -14 2 -36 7 -50 10 -14 3 -36 8 -50 10 -14 3 -50 10 -80 16 -30 6 -70 13
-89 16 -18 3 -43 8 -55 10 -11 2 -34 6 -51 9 -16 3 -43 7 -60 10 -16 3 -46 8
-65 10 -19 3 -44 7 -55 10 -11 2 -47 7 -80 11 -33 3 -62 8 -65 9 -3 2 -33 6
-65 10 -33 4 -71 8 -85 11 -14 2 -47 6 -75 9 -27 4 -63 8 -80 10 -16 2 -66 7
-110 10 -44 4 -91 8 -104 10 -13 2 -67 7 -120 11 -53 3 -114 8 -136 10 -52 6
-811 15 -816 10z"/>
</g>
</svg>
